HIERARCHY
ROOT Hips # ルートボーン: 腰
{
	OFFSET 0.00 0.00 0.00 # 初期オフセット
	CHANNELS 6 Xposition Yposition Zposition Zrotation Xrotation Yrotation # モーションデータに影響するチャネル
	JOINT LeftUpLeg # 子ボーン: 左上脚
	{
		OFFSET 0.00 -40.00 0.00 # 初期オフセット
		CHANNELS 3 Zrotation Xrotation Yrotation # チャネル
		End Site
		{
			OFFSET 0.00 -40.00 0.00 # 終端オフセット
		}
	}
	JOINT RightUpLeg # 子ボーン: 右上脚
	{
		OFFSET 0.00 -40.00 0.00 # 初期オフセット
		CHANNELS 3 Zrotation Xrotation Yrotation # チャネル
		End Site
		{
			OFFSET 0.00 -40.00 0.00 # 終端オフセット
		}
	}
	JOINT Spine # 子ボーン: 脊椎
	{
		OFFSET 0.00 40.00 0.00 # 初期オフセット
		CHANNELS 3 Zrotation Xrotation Yrotation # チャネル
		JOINT Head # 子ボーン: 頭
		{
			OFFSET 0.00 30.00 0.00 # 初期オフセット
			CHANNELS 3 Zrotation Xrotation Yrotation # チャネル
			End Site
			{
				OFFSET 0.00 10.00 0.00 # 終端オフセット
			}
		}
	}
}
MOTION
Frames: 109 # フレーム数
Frame Time: 0.0333333 # フレーム時間
0.00 0.00 0.00 0.00 0.00 0.00 0.00 0.00 0.00 0.00 0.00 0.00 0.00 0.00 10.00 0.00 0.00 0.00
0.00 0.00 0.00 0.42 0.00 0.00 0.00 0.00 0.00 0.42 0.00 0.00 0.00 0.00 9.99 0.00 0.00 0.00
0.00 0.00 0.00 0.84 0.00 0.00 0.00 0.00 0.00 0.84 0.00 0.00 0.00 0.00 9.96 0.00 0.00 0.00
0.00 0.00 0.00 1.25 0.00 0.00 0.00 0.00 0.00 1.25 0.00 0.00 0.00 0.00 9.92 0.00 0.00 0.00
0.00 0.00 0.00 1.67 0.00 0.00 0.00 0.00 0.00 1.67 0.00 0.00 0.00 0.00 9.86 0.00 0.00 0.00
0.00 0.00 0.00 2.08 0.00 0.00 0.00 0.00 0.00 2.08 0.00 0.00 0.00 0.00 9.78 0.00 0.00 0.00
0.00 0.00 0.00 2.49 0.00 0.00 0.00 0.00 0.00 2.49 0.00 0.00 0.00 0.00 9.69 0.00 0.00 0.00
0.00 0.00 0.00 2.89 0.00 0.00 0.00 0.00 0.00 2.89 0.00 0.00 0.00 0.00 9.57 0.00 0.00 0.00
0.00 0.00 0.00 3.29 0.00 0.00 0.00 0.00 0.00 3.29 0.00 0.00 0.00 0.00 9.44 0.00 0.00 0.00
0.00 0.00 0.00 3.68 0.00 0.00 0.00 0.00 0.00 3.68 0.00 0.00 0.00 0.00 9.30 0.00 0.00 0.00
0.00 0.00 0.00 4.07 0.00 0.00 0.00 0.00 0.00 4.07 0.00 0.00 0.00 0.00 9.14 0.00 0.00 0.00
0.00 0.00 0.00 4.45 0.00 0.00 0.00 0.00 0.00 4.45 0.00 0.00 0.00 0.00 8.96 0.00 0.00 0.00
0.00 0.00 0.00 4.82 0.00 0.00 0.00 0.00 0.00 4.82 0.00 0.00 0.00 0.00 8.76 0.00 0.00 0.00
0.00 0.00 0.00 5.18 0.00 0.00 0.00 0.00 0.00 5.18 0.00 0.00 0.00 0.00 8.55 0.00 0.00 0.00
0.00 0.00 0.00 5.53 0.00 0.00 0.00 0.00 0.00 5.53 0.00 0.00 0.00 0.00 8.33 0.00 0.00 0.00
0.00 0.00 0.00 5.88 0.00 0.00 0.00 0.00 0.00 5.88 0.00 0.00 0.00 0.00 8.09 0.00 0.00 0.00
0.00 0.00 0.00 6.21 0.00 0.00 0.00 0.00 0.00 6.21 0.00 0.00 0.00 0.00 7.84 0.00 0.00 0.00
0.00 0.00 0.00 6.53 0.00 0.00 0.00 0.00 0.00 6.53 0.00 0.00 0.00 0.00 7.57 0.00 0.00 0.00
0.00 0.00 0.00 6.85 0.00 0.00 0.00 0.00 0.00 6.85 0.00 0.00 0.00 0.00 7.29 0.00 0.00 0.00
0.00 0.00 0.00 7.14 0.00 0.00 0.00 0.00 0.00 7.14 0.00 0.00 0.00 0.00 7.00 0.00 0.00 0.00
0.00 0.00 0.00 7.43 0.00 0.00 0.00 0.00 0.00 7.43 0.00 0.00 0.00 0.00 6.69 0.00 0.00 0.00
0.00 0.00 0.00 7.71 0.00 0.00 0.00 0.00 0.00 7.71 0.00 0.00 0.00 0.00 6.37 0.00 0.00 0.00
0.00 0.00 0.00 7.97 0.00 0.00 0.00 0.00 0.00 7.97 0.00 0.00 0.00 0.00 6.05 0.00 0.00 0.00
0.00 0.00 0.00 8.21 0.00 0.00 0.00 0.00 0.00 8.21 0.00 0.00 0.00 0.00 5.71 0.00 0.00 0.00
0.00 0.00 0.00 8.44 0.00 0.00 0.00 0.00 0.00 8.44 0.00 0.00 0.00 0.00 5.36 0.00 0.00 0.00
0.00 0.00 0.00 8.66 0.00 0.00 0.00 0.00 0.00 8.66 0.00 0.00 0.00 0.00 5.00 0.00 0.00 0.00
0.00 0.00 0.00 8.86 0.00 0.00 0.00 0.00 0.00 8.86 0.00 0.00 0.00 0.00 4.63 0.00 0.00 0.00
0.00 0.00 0.00 9.05 0.00 0.00 0.00 0.00 0.00 9.05 0.00 0.00 0.00 0.00 4.26 0.00 0.00 0.00
0.00 0.00 0.00 9.22 0.00 0.00 0.00 0.00 0.00 9.22 0.00 0.00 0.00 0.00 3.88 0.00 0.00 0.00
0.00 0.00 0.00 9.37 0.00 0.00 0.00 0.00 0.00 9.37 0.00 0.00 0.00 0.00 3.49 0.00 0.00 0.00
0.00 0.00 0.00 9.51 0.00 0.00 0.00 0.00 0.00 9.51 0.00 0.00 0.00 0.00 3.09 0.00 0.00 0.00
0.00 0.00 0.00 9.63 0.00 0.00 0.00 0.00 0.00 9.63 0.00 0.00 0.00 0.00 2.69 0.00 0.00 0.00
0.00 0.00 0.00 9.74 0.00 0.00 0.00 0.00 0.00 9.74 0.00 0.00 0.00 0.00 2.28 0.00 0.00 0.00
0.00 0.00 0.00 9.82 0.00 0.00 0.00 0.00 0.00 9.82 0.00 0.00 0.00 0.00 1.87 0.00 0.00 0.00
0.00 0.00 0.00 9.89 0.00 0.00 0.00 0.00 0.00 9.89 0.00 0.00 0.00 0.00 1.46 0.00 0.00 0.00
0.00 0.00 0.00 9.95 0.00 0.00 0.00 0.00 0.00 9.95 0.00 0.00 0.00 0.00 1.05 0.00 0.00 0.00
0.00 0.00 0.00 9.98 0.00 0.00 0.00 0.00 0.00 9.98 0.00 0.00 0.00 0.00 0.63 0.00 0.00 0.00
0.00 0.00 0.00 10.00 0.00 0.00 0.00 0.00 0.00 10.00 0.00 0.00 0.00 0.00 0.21 0.00 0.00 0.00
0.00 0.00 0.00 10.00 0.00 0.00 0.00 0.00 0.00 10.00 0.00 0.00 0.00 0.00 -0.21 0.00 0.00 0.00
0.00 0.00 0.00 9.98 0.00 0.00 0.00 0.00 0.00 9.98 0.00 0.00 0.00 0.00 -0.63 0.00 0.00 0.00
0.00 0.00 0.00 9.95 0.00 0.00 0.00 0.00 0.00 9.95 0.00 0.00 0.00 0.00 -1.05 0.00 0.00 0.00
0.00 0.00 0.00 9.89 0.00 0.00 0.00 0.00 0.00 9.89 0.00 0.00 0.00 0.00 -1.46 0.00 0.00 0.00
0.00 0.00 0.00 9.82 0.00 0.00 0.00 0.00 0.00 9.82 0.00 0.00 0.00 0.00 -1.87 0.00 0.00 0.00
0.00 0.00 0.00 9.74 0.00 0.00 0.00 0.00 0.00 9.74 0.00 0.00 0.00 0.00 -2.28 0.00 0.00 0.00
0.00 0.00 0.00 9.63 0.00 0.00 0.00 0.00 0.00 9.63 0.00 0.00 0.00 0.00 -2.69 0.00 0.00 0.00
0.00 0.00 0.00 9.51 0.00 0.00 0.00 0.00 0.00 9.51 0.00 0.00 0.00 0.00 -3.09 0.00 0.00 0.00
0.00 0.00 0.00 9.37 0.00 0.00 0.00 0.00 0.00 9.37 0.00 0.00 0.00 0.00 -3.49 0.00 0.00 0.00
0.00 0.00 0.00 9.22 0.00 0.00 0.00 0.00 0.00 9.22 0.00 0.00 0.00 0.00 -3.88 0.00 0.00 0.00
0.00 0.00 0.00 9.05 0.00 0.00 0.00 0.00 0.00 9.05 0.00 0.00 0.00 0.00 -4.26 0.00 0.00 0.00
0.00 0.00 0.00 8.86 0.00 0.00 0.00 0.00 0.00 8.86 0.00 0.00 0.00 0.00 -4.63 0.00 0.00 0.00
0.00 0.00 0.00 8.66 0.00 0.00 0.00 0.00 0.00 8.66 0.00 0.00 0.00 0.00 -5.00 0.00 0.00 0.00
0.00 0.00 0.00 8.44 0.00 0.00 0.00 0.00 0.00 8.44 0.00 0.00 0.00 0.00 -5.36 0.00 0.00 0.00
0.00 0.00 0.00 8.21 0.00 0.00 0.00 0.00 0.00 8.21 0.00 0.00 0.00 0.00 -5.71 0.00 0.00 0.00
0.00 0.00 0.00 7.97 0.00 0.00 0.00 0.00 0.00 7.97 0.00 0.00 0.00 0.00 -6.05 0.00 0.00 0.00
0.00 0.00 0.00 7.71 0.00 0.00 0.00 0.00 0.00 7.71 0.00 0.00 0.00 0.00 -6.37 0.00 0.00 0.00
0.00 0.00 0.00 7.43 0.00 0.00 0.00 0.00 0.00 7.43 0.00 0.00 0.00 0.00 -6.69 0.00 0.00 0.00
0.00 0.00 0.00 7.14 0.00 0.00 0.00 0.00 0.00 7.14 0.00 0.00 0.00 0.00 -7.00 0.00 0.00 0.00
0.00 0.00 0.00 6.85 0.00 0.00 0.00 0.00 0.00 6.85 0.00 0.00 0.00 0.00 -7.29 0.00 0.00 0.00
0.00 0.00 0.00 6.53 0.00 0.00 0.00 0.00 0.00 6.53 0.00 0.00 0.00 0.00 -7.57 0.00 0.00 0.00
0.00 0.00 0.00 6.21 0.00 0.00 0.00 0.00 0.00 6.21 0.00 0.00 0.00 0.00 -7.84 0.00 0.00 0.00
0.00 0.00 0.00 5.88 0.00 0.00 0.00 0.00 0.00 5.88 0.00 0.00 0.00 0.00 -8.09 0.00 0.00 0.00
0.00 0.00 0.00 5.53 0.00 0.00 0.00 0.00 0.00 5.53 0.00 0.00 0.00 0.00 -8.33 0.00 0.00 0.00
0.00 0.00 0.00 5.18 0.00 0.00 0.00 0.00 0.00 5.18 0.00 0.00 0.00 0.00 -8.55 0.00 0.00 0.00
0.00 0.00 0.00 4.82 0.00 0.00 0.00 0.00 0.00 4.82 0.00 0.00 0.00 0.00 -8.76 0.00 0.00 0.00
0.00 0.00 0.00 4.45 0.00 0.00 0.00 0.00 0.00 4.45 0.00 0.00 0.00 0.00 -8.96 0.00 0.00 0.00
0.00 0.00 0.00 4.07 0.00 0.00 0.00 0.00 0.00 4.07 0.00 0.00 0.00 0.00 -9.14 0.00 0.00 0.00
0.00 0.00 0.00 3.68 0.00 0.00 0.00 0.00 0.00 3.68 0.00 0.00 0.00 0.00 -9.30 0.00 0.00 0.00
0.00 0.00 0.00 3.29 0.00 0.00 0.00 0.00 0.00 3.29 0.00 0.00 0.00 0.00 -9.44 0.00 0.00 0.00
0.00 0.00 0.00 2.89 0.00 0.00 0.00 0.00 0.00 2.89 0.00 0.00 0.00 0.00 -9.57 0.00 0.00 0.00
0.00 0.00 0.00 2.49 0.00 0.00 0.00 0.00 0.00 2.49 0.00 0.00 0.00 0.00 -9.69 0.00 0.00 0.00
0.00 0.00 0.00 2.08 0.00 0.00 0.00 0.00 0.00 2.08 0.00 0.00 0.00 0.00 -9.78 0.00 0.00 0.00
0.00 0.00 0.00 1.67 0.00 0.00 0.00 0.00 0.00 1.67 0.00 0.00 0.00 0.00 -9.86 0.00 0.00 0.00
0.00 0.00 0.00 1.25 0.00 0.00 0.00 0.00 0.00 1.25 0.00 0.00 0.00 0.00 -9.92 0.00 0.00 0.00
0.00 0.00 0.00 0.84 0.00 0.00 0.00 0.00 0.00 0.84 0.00 0.00 0.00 0.00 -9.96 0.00 0.00 0.00
0.00 0.00 0.00 0.42 0.00 0.00 0.00 0.00 0.00 0.42 0.00 0.00 0.00 0.00 -9.99 0.00 0.00 0.00
0.00 0.00 0.00 0.00 0.00 0.00 0.00 0.00 0.00 0.00 0.00 0.00 0.00 0.00 -10.00 0.00 0.00 0.00
0.00 0.00 0.00 -0.42 0.00 0.00 0.00 0.00 0.00 -0.42 0.00 0.00 0.00 0.00 -9.99 0.00 0.00 0.00
0.00 0.00 0.00 -0.84 0.00 0.00 0.00 0.00 0.00 -0.84 0.00 0.00 0.00 0.00 -9.96 0.00 0.00 0.00
0.00 0.00 0.00 -1.25 0.00 0.00 0.00 0.00 0.00 -1.25 0.00 0.00 0.00 0.00 -9.92 0.00 0.00 0.00
0.00 0.00 0.00 -1.67 0.00 0.00 0.00 0.00 0.00 -1.67 0.00 0.00 0.00 0.00 -9.86 0.00 0.00 0.00
0.00 0.00 0.00 -2.08 0.00 0.00 0.00 0.00 0.00 -2.08 0.00 0.00 0.00 0.00 -9.78 0.00 0.00 0.00
0.00 0.00 0.00 -2.49 0.00 0.00 0.00 0.00 0.00 -2.49 0.00 0.00 0.00 0.00 -9.69 0.00 0.00 0.00
0.00 0.00 0.00 -2.89 0.00 0.00 0.00 0.00 0.00 -2.89 0.00 0.00 0.00 0.00 -9.57 0.00 0.00 0.00
0.00 0.00 0.00 -3.29 0.00 0.00 0.00 0.00 0.00 -3.29 0.00 0.00 0.00 0.00 -9.44 0.00 0.00 0.00
0.00 0.00 0.00 -3.68 0.00 0.00 0.00 0.00 0.00 -3.68 0.00 0.00 0.00 0.00 -9.30 0.00 0.00 0.00
0.00 0.00 0.00 -4.07 0.00 0.00 0.00 0.00 0.00 -4.07 0.00 0.00 0.00 0.00 -9.14 0.00 0.00 0.00
0.00 0.00 0.00 -4.45 0.00 0.00 0.00 0.00 0.00 -4.45 0.00 0.00 0.00 0.00 -8.96 0.00 0.00 0.00
0.00 0.00 0.00 -4.82 0.00 0.00 0.00 0.00 0.00 -4.82 0.00 0.00 0.00 0.00 -8.76 0.00 0.00 0.00
0.00 0.00 0.00 -5.18 0.00 0.00 0.00 0.00 0.00 -5.18 0.00 0.00 0.00 0.00 -8.55 0.00 0.00 0.00
0.00 0.00 0.00 -5.53 0.00 0.00 0.00 0.00 0.00 -5.53 0.00 0.00 0.00 0.00 -8.33 0.00 0.00 0.00
0.00 0.00 0.00 -5.88 0.00 0.00 0.00 0.00 0.00 -5.88 0.00 0.00 0.00 0.00 -8.09 0.00 0.00 0.00
0.00 0.00 0.00 -6.21 0.00 0.00 0.00 0.00 0.00 -6.21 0.00 0.00 0.00 0.00 -7.84 0.00 0.00 0.00
0.00 0.00 0.00 -6.53 0.00 0.00 0.00 0.00 0.00 -6.53 0.00 0.00 0.00 0.00 -7.57 0.00 0.00 0.00
0.00 0.00 0.00 -6.85 0.00 0.00 0.00 0.00 0.00 -6.85 0.00 0.00 0.00 0.00 -7.29 0.00 0.00 0.00
0.00 0.00 0.00 -7.14 0.00 0.00 0.00 0.00 0.00 -7.14 0.00 0.00 0.00 0.00 -7.00 0.00 0.00 0.00
0.00 0.00 0.00 -7.43 0.00 0.00 0.00 0.00 0.00 -7.43 0.00 0.00 0.00 0.00 -6.69 0.00 0.00 0.00
0.00 0.00 0.00 -7.71 0.00 0.00 0.00 0.00 0.00 -7.71 0.00 0.00 0.00 0.00 -6.37 0.00 0.00 0.00
0.00 0.00 0.00 -7.97 0.00 0.00 0.00 0.00 0.00 -7.97 0.00 0.00 0.00 0.00 -6.05 0.00 0.00 0.00
0.00 0.00 0.00 -8.21 0.00 0.00 0.00 0.00 0.00 -8.21 0.00 0.00 0.00 0.00 -5.71 0.00 0.00 0.00
0.00 0.00 0.00 -8.44 0.00 0.00 0.00 0.00 0.00 -8.44 0.00 0.00 0.00 0.00 -5.36 0.00 0.00 0.00
0.00 0.00 0.00 -8.66 0.00 0.00 0.00 0.00 0.00 -8.66 0.00 0.00 0.00 0.00 -5.00 0.00 0.00 0.00
0.00 0.00 0.00 -8.86 0.00 0.00 0.00 0.00 0.00 -8.86 0.00 0.00 0.00 0.00 -4.63 0.00 0.00 0.00
0.00 0.00 0.00 -9.05 0.00 0.00 0.00 0.00 0.00 -9.05 0.00 0.00 0.00 0.00 -4.26 0.00 0.00 0.00
0.00 0.00 0.00 -9.22 0.00 0.00 0.00 0.00 0.00 -9.22 0.00 0.00 0.00 0.00 -3.88 0.00 0.00 0.00
0.00 0.00 0.00 -9.37 0.00 0.00 0.00 0.00 0.00 -9.37 0.00 0.00 0.00 0.00 -3.49 0.00 0.00 0.00
0.00 0.00 0.00 -9.51 0.00 0.00 0.00 0.00 0.00 -9.51 0.00 0.00 0.00 0.00 -3.09 0.00 0.00 0.00
0.00 0.00 0.00 -9.63 0.00 0.00 0.00 0.00 0.00 -9.63 0.00 0.00 0.00 0.00 -2.69 0.00 0.00 0.00
0.00 0.00 0.00 -9.74 0.00 0.00 0.00 0.00 0.00 -9.74 0.00 0.00 0.00 0.00 -2.28 0.00 0.00 0.00
0.00 0.00 0.00 -9.82 0.00 0.00 0.00 0.00 0.00 -9.82 0.00 0.00 0.00 0.00 -1.87 0.00 0.00 0.00
